<?xml version='1.0' encoding='utf-8'?>
<mxfile host="app.diagrams.net" agent="Mozilla/5.0 (Windows NT 10.0; Win64; x64) AppleWebKit/537.36 (KHTML, like Gecko) Chrome/138.0.0.0 Safari/537.36" version="28.0.7"><diagram name="Produktionsprozess_with_loops" id="WWTvrGOokQbHTszkcPet"><mxGraphModel dx="1260" dy="484" grid="1" gridSize="10" guides="1" tooltips="1" connect="1" arrows="1" fold="1" page="1" pageScale="1" pageWidth="827" pageHeight="1169" math="0" shadow="0"><root><mxCell id="0" /><object label="Produktionsprozess_with_loops" style="layer" id="kjXNbdknxgFZG0ey-R28-3"><mxCell parent="0" /></object><mxCell id="9w9Xh2U-Y_duheg7cGsQ-31" value="" style="edgeStyle=orthogonalEdgeStyle;rounded=0;orthogonalLoop=1;jettySize=auto;html=1;" parent="kjXNbdknxgFZG0ey-R28-3" source="9w9Xh2U-Y_duheg7cGsQ-32" target="9w9Xh2U-Y_duheg7cGsQ-34" edge="1"><mxGeometry relative="1" as="geometry" />
        </mxCell><mxCell id="9w9Xh2U-Y_duheg7cGsQ-32" value="Ingest" style="rounded=1;whiteSpace=wrap;html=1;" parent="kjXNbdknxgFZG0ey-R28-3" vertex="1"><mxGeometry x="200" y="240" width="80" height="40" as="geometry" />
        </mxCell><mxCell id="9w9Xh2U-Y_duheg7cGsQ-33" value="" style="edgeStyle=orthogonalEdgeStyle;rounded=0;orthogonalLoop=1;jettySize=auto;html=1;" parent="kjXNbdknxgFZG0ey-R28-3" source="9w9Xh2U-Y_duheg7cGsQ-34" target="9w9Xh2U-Y_duheg7cGsQ-36" edge="1"><mxGeometry relative="1" as="geometry" />
        </mxCell><mxCell id="9w9Xh2U-Y_duheg7cGsQ-34" value="Schnitt" style="rounded=1;whiteSpace=wrap;html=1;" parent="kjXNbdknxgFZG0ey-R28-3" vertex="1"><mxGeometry x="320" y="240" width="80" height="40" as="geometry" />
        </mxCell><mxCell id="9w9Xh2U-Y_duheg7cGsQ-35" value="" style="edgeStyle=orthogonalEdgeStyle;rounded=0;orthogonalLoop=1;jettySize=auto;html=1;" parent="kjXNbdknxgFZG0ey-R28-3" source="9w9Xh2U-Y_duheg7cGsQ-36" target="9w9Xh2U-Y_duheg7cGsQ-37" edge="1"><mxGeometry relative="1" as="geometry" />
        </mxCell><mxCell id="9w9Xh2U-Y_duheg7cGsQ-36" value="Vertonung" style="rounded=1;whiteSpace=wrap;html=1;" parent="kjXNbdknxgFZG0ey-R28-3" vertex="1"><mxGeometry x="440" y="240" width="80" height="40" as="geometry" />
        </mxCell><mxCell id="9w9Xh2U-Y_duheg7cGsQ-37" value="Ausstrahlung" style="rounded=1;whiteSpace=wrap;html=1;" parent="kjXNbdknxgFZG0ey-R28-3" vertex="1"><mxGeometry x="560" y="240" width="80" height="40" as="geometry" />
        </mxCell><mxCell id="9w9Xh2U-Y_duheg7cGsQ-38" value="" style="endArrow=classic;html=1;rounded=0;entryX=0;entryY=0.75;entryDx=0;entryDy=0;" parent="kjXNbdknxgFZG0ey-R28-3" target="9w9Xh2U-Y_duheg7cGsQ-32" edge="1"><mxGeometry width="50" height="50" relative="1" as="geometry">
            <mxPoint x="160" y="280" as="sourcePoint" />
            <mxPoint x="350" y="260" as="targetPoint" />
          </mxGeometry>
        </mxCell><mxCell id="9w9Xh2U-Y_duheg7cGsQ-39" value="" style="endArrow=classic;html=1;rounded=0;entryX=0;entryY=0.5;entryDx=0;entryDy=0;" parent="kjXNbdknxgFZG0ey-R28-3" target="9w9Xh2U-Y_duheg7cGsQ-32" edge="1"><mxGeometry width="50" height="50" relative="1" as="geometry">
            <mxPoint x="160" y="260" as="sourcePoint" />
            <mxPoint x="230" y="270" as="targetPoint" />
          </mxGeometry>
        </mxCell><mxCell id="9w9Xh2U-Y_duheg7cGsQ-40" value="" style="endArrow=classic;html=1;rounded=0;entryX=0;entryY=0.25;entryDx=0;entryDy=0;" parent="kjXNbdknxgFZG0ey-R28-3" target="9w9Xh2U-Y_duheg7cGsQ-32" edge="1"><mxGeometry width="50" height="50" relative="1" as="geometry">
            <mxPoint x="160" y="240" as="sourcePoint" />
            <mxPoint x="180" y="240" as="targetPoint" />
          </mxGeometry>
        </mxCell><mxCell id="9w9Xh2U-Y_duheg7cGsQ-41" value="Rohmaterial" style="text;html=1;align=center;verticalAlign=middle;whiteSpace=wrap;rounded=0;rotation=-90;" parent="kjXNbdknxgFZG0ey-R28-3" vertex="1"><mxGeometry x="120" y="255" width="70" height="10" as="geometry" />
        </mxCell><mxCell id="9w9Xh2U-Y_duheg7cGsQ-44" value="" style="endArrow=classic;html=1;rounded=0;" parent="kjXNbdknxgFZG0ey-R28-3" edge="1"><mxGeometry width="50" height="50" relative="1" as="geometry">
            <mxPoint x="410" y="260" as="sourcePoint" />
            <mxPoint x="300" y="260" as="targetPoint" />
            <Array as="points">
              <mxPoint x="410" y="230" />
              <mxPoint x="360" y="230" />
              <mxPoint x="300" y="230" />
            </Array>
          </mxGeometry>
        </mxCell><mxCell id="9w9Xh2U-Y_duheg7cGsQ-46" value="" style="endArrow=classic;html=1;rounded=0;" parent="kjXNbdknxgFZG0ey-R28-3" edge="1"><mxGeometry width="50" height="50" relative="1" as="geometry">
            <mxPoint x="530" y="260" as="sourcePoint" />
            <mxPoint x="420" y="260" as="targetPoint" />
            <Array as="points">
              <mxPoint x="530" y="230" />
              <mxPoint x="420" y="230" />
            </Array>
          </mxGeometry>
        </mxCell></root></mxGraphModel></diagram></mxfile>